Coordinates
version=1
nRows=16
nColumns=40
inDegrees=yes

Units are S.I. units (second, meters, Newtons, ...)
Angles are in degrees.

endheader
time	pelvis_tilt	pelvis_list	pelvis_rotation	pelvis_tx	pelvis_ty	pelvis_tz	hip_flexion_r	hip_adduction_r	hip_rotation_r	knee_angle_r	knee_angle_r_beta	ankle_angle_r	subtalar_angle_r	mtp_angle_r	hip_flexion_l	hip_adduction_l	hip_rotation_l	knee_angle_l	knee_angle_l_beta	ankle_angle_l	subtalar_angle_l	mtp_angle_l	lumbar_extension	lumbar_bending	lumbar_rotation	arm_flex_r	arm_add_r	arm_rot_r	elbow_flex_r	pro_sup_r	wrist_flex_r	wrist_dev_r	arm_flex_l	arm_add_l	arm_rot_l	elbow_flex_l	pro_sup_l	wrist_flex_l	wrist_dev_l
     15.61500000	     -5.43067785	     -5.82229735	     -8.71260239	      1.06115827	      0.93110710	      0.41854242	     24.09253419	      1.78306100	    -15.02560187	      7.61007309	      7.61007309	      0.07380981	     10.83976112	      7.17674256	      8.33433338	     -7.89374490	    -15.29869712	     19.06558084	     19.06558084	     15.24127834	    -13.62667731	     -1.87149803	    -11.28712735	      5.22365248	      0.31389283	     -3.09516121	    -11.35234034	     -6.55864240	     34.56625282	     46.51963422	      0.00000000	      0.00000000	     18.96814071	    -18.72348802	     -5.48611918	     76.92162724	     47.08602596	      0.00000000	      0.00000000
     15.62807143	     -5.27804986	     -5.76930989	     -8.74317818	      1.06230815	      0.93062756	      0.41999962	     23.58716889	      1.72902727	    -14.99496059	      8.58477752	      8.58477752	      0.37926865	     10.21063465	      6.53014833	      7.62191388	     -7.82893416	    -15.39033037	     18.92186604	     18.92186604	     15.56683743	    -13.52493784	     -1.88054189	    -11.18203856	      5.23514653	      0.15495072	     -2.35893580	    -11.38585339	     -6.63585099	     35.11968587	     46.50122150	      0.00000000	      0.00000000	     18.62599170	    -18.68240195	     -5.28121390	     76.38774900	     47.06997721	      0.00000000	      0.00000000
     15.64114286	     -5.15586957	     -5.60744655	     -8.74169819	      1.06369680	      0.92995973	      0.42151835	     23.17479327	      1.53831138	    -14.59387436	      9.89386424	      9.89386424	      0.57723306	      9.25894344	      5.32043653	      6.94743817	     -7.66869609	    -15.55654985	     18.78530478	     18.78530478	     15.94332028	    -13.26271275	     -1.86377128	    -10.94138948	      5.15242843	     -0.09923590	     -1.69727867	    -11.39650347	     -6.71024307	     35.96998332	     46.46690722	      0.00000000	      0.00000000	     18.25882391	    -18.59981756	     -5.12134919	     75.39178877	     47.05268606	      0.00000000	      0.00000000
     15.65421429	     -4.96902598	     -5.45154597	     -8.68563810	      1.06542929	      0.92923169	      0.42317553	     22.65734055	      1.35894315	    -13.89542040	     11.27275721	     11.27275721	      0.73189620	      8.10941617	      3.63841847	      6.18055164	     -7.51873053	    -15.72940215	     18.65221034	     18.65221034	     16.40012295	    -12.87787383	     -1.80335971	    -10.70751651	      5.08970905	     -0.24981827	     -1.18326001	    -11.48290829	     -6.77289410	     37.16553735	     46.41328224	      0.00000000	      0.00000000	     17.91519874	    -18.36823235	     -5.02061361	     73.99506062	     47.03710949	      0.00000000	      0.00000000
     15.66728571	     -4.67550922	     -5.41507943	     -8.57254455	      1.06739444	      0.92855123	      0.42499157	     21.83844205	      1.36885981	    -12.94278846	     12.26717531	     12.26717531	      0.34986511	      6.75216001	      0.64794579	      5.34990780	     -7.53320857	    -15.90579516	     18.69671693	     18.69671693	     17.07572570	    -12.34667524	     -1.51932415	    -10.61273049	      5.17433983	      0.09947559	     -1.43733920	    -11.82185952	     -6.79078943	     39.60306990	     46.27930000	      0.00000000	      0.00000000	     18.16250680	    -17.69521951	     -4.88465522	     71.72086124	     47.03691348	      0.00000000	      0.00000000
     15.68035714	     -4.37682577	     -5.26817083	     -8.42272703	      1.06955448	      0.92800348	      0.42679225	     21.20095495	      1.17698220	    -12.25225480	     13.57261623	     13.57261623	      1.01146081	      6.13889974	      0.05003903	      4.36868153	     -7.35643733	    -15.99804111	     18.39211880	     18.39211880	     17.39906242	    -11.98272690	     -1.50529071	    -10.46802805	      5.09515387	     -0.21153782	     -0.70845602	    -11.91872086	     -6.89877406	     40.41769928	     46.25121708	      0.00000000	      0.00000000	     17.42792326	    -17.66686147	     -4.73411993	     70.62733018	     47.01249345	      0.00000000	      0.00000000
     15.69342857	     -4.12782036	     -5.23994988	     -8.24192197	      1.07171735	      0.92746439	      0.42876550	     20.55548863	      1.23083112	    -11.19042598	     14.56171670	     14.56171670	      1.54285914	      4.91748422	     -0.58231849	      3.53071713	     -7.38707859	    -16.13647214	     18.31076990	     18.31076990	     17.88176077	    -11.44908740	     -1.33010247	    -10.26244036	      5.20042887	     -0.28243726	     -0.44544170	    -12.17952254	     -6.97049856	     42.18156699	     46.16868517	      0.00000000	      0.00000000	     17.10474151	    -17.18384021	     -4.98279728	     68.30207841	     47.01347951	      0.00000000	      0.00000000
     15.70650000	     -3.81837052	     -5.14097552	     -8.04190981	      1.07396817	      0.92718032	      0.43075877	     19.94270909	      1.15918774	    -10.41725283	     15.53505267	     15.53505267	      2.28550038	      4.25316539	     -1.01232381	      2.57468790	     -7.30277080	    -16.17887907	     18.08396307	     18.08396307	     18.18842132	    -11.03809004	     -1.21131039	    -10.14461973	      5.19269297	     -0.54798127	      0.21004468	    -12.31609556	     -7.08162643	     43.27270725	     46.12924432	      0.00000000	      0.00000000	     16.36808981	    -17.01934319	     -5.02445479	     66.72901332	     46.99500393	      0.00000000	      0.00000000
     15.71957143	     -3.58140743	     -5.16737981	     -7.81341879	      1.07614002	      0.92702441	      0.43290037	     19.37078442	      1.30618758	     -9.51706381	     16.24226957	     16.24226957	      2.91739101	      3.11124318	     -1.31441151	      1.80344649	     -7.43730496	    -16.24867278	     18.08829550	     18.08829550	     18.54966073	    -10.57035164	     -0.90591157	     -9.95380523	      5.33784719	     -0.68746798	      0.58352671	    -12.59096093	     -7.16003059	     44.97982496	     46.05854417	      0.00000000	      0.00000000	     15.91121057	    -16.53649830	     -5.45218480	     64.16063520	     46.99625970	      0.00000000	      0.00000000
     15.73264286	     -3.30319449	     -5.20876335	     -7.57608118	      1.07823750	      0.92709554	      0.43511183	     18.82005349	      1.44515448	     -8.83522363	     16.90685127	     16.90685127	      3.61727427	      2.18302871	     -1.62511935	      1.05836409	     -7.60350974	    -16.24449885	     18.20814199	     18.20814199	     18.85644270	    -10.23280834	     -0.62364676	     -9.84996530	      5.49048852	     -0.85192110	      1.07094257	    -12.86699962	     -7.26146424	     46.53560658	     45.99898501	      0.00000000	      0.00000000	     15.33691116	    -16.12346880	     -5.79852907	     61.82164669	     46.99170511	      0.00000000	      0.00000000
     15.74571429	     -3.12187898	     -5.27680867	     -7.31936617	      1.08013606	      0.92733057	      0.43749565	     18.35131378	      1.66650115	     -8.17959206	     17.37282509	     17.37282509	      4.19548915	      1.07700099	     -1.83245861	      0.57598765	     -7.89355835	    -16.21129771	     18.59845780	     18.59845780	     19.10493975	     -9.89403662	     -0.24145305	     -9.68400607	      5.68356432	     -0.90710109	      1.40008105	    -13.19401396	     -7.32290030	     48.48670017	     45.92097316	      0.00000000	      0.00000000	     14.90635119	    -15.55759017	     -6.39829429	     58.84258998	     47.00079466	      0.00000000	      0.00000000
     15.75878571	     -2.91843315	     -5.34754160	     -7.04364915	      1.08194842	      0.92774656	      0.43997548	     17.87415605	      1.85801227	     -7.77622456	     17.79202284	     17.79202284	      4.76733705	      0.20030287	     -2.02024590	      0.22364080	     -8.23642138	    -16.10237100	     19.25185299	     19.25185299	     19.28473994	     -9.74517380	     -0.00642817	     -9.55973890	      5.84400384	     -1.00999192	      1.82485192	    -13.50820517	     -7.40664404	     50.32733617	     45.85152123	      0.00000000	      0.00000000	     14.35968751	    -15.08880864	     -6.91829199	     56.11858633	     47.00615295	      0.00000000	      0.00000000
     15.77185714	     -2.67030081	     -5.44784897	     -6.79176628	      1.08349637	      0.92842888	      0.44263225	     17.32671986	      2.09288300	     -7.47885631	     18.10316086	     18.10316086	      5.26689698	     -0.59897721	     -2.12749375	     -0.00737324	     -8.68543878	    -16.00951804	     20.19984412	     20.19984412	     19.39137502	     -9.59072756	      0.35087596	     -9.61147271	      6.02641839	     -0.36084296	      1.47186563	    -14.21115085	     -7.39576542	     53.13022282	     45.73268535	      0.00000000	      0.00000000	     14.75678795	    -13.99130090	     -8.01755799	     52.23826436	     47.05643834	      0.00000000	      0.00000000
     15.78492857	     -2.47412969	     -5.51907848	     -6.48627457	      1.08491011	      0.92909097	      0.44535358	     16.79996173	      2.24688191	     -7.53774496	     18.34041426	     18.34041426	      5.78792258	     -0.93944352	     -2.27623117	      0.05275635	     -9.15271573	    -15.64578556	     21.50860727	     21.50860727	     19.20241892	     -9.94475602	      0.16110687	     -9.58197058	      6.11955525	     -0.74723956	      2.42016422	    -14.37275523	     -7.62976176	     54.26060038	     45.70522394	      0.00000000	      0.00000000	     13.57610177	    -14.00609261	     -8.09186585	     50.73624860	     47.03413754	      0.00000000	      0.00000000
     15.79800000	     -2.36326721	     -5.53249701	     -6.18455429	      1.08608675	      0.92974999	      0.44823720	     16.33614200	      2.39517795	     -7.49730005	     18.49381579	     18.49381579	      6.25657523	     -1.46628809	     -2.20722849	      0.42328759	     -9.66232818	    -15.31948584	     23.14320546	     23.14320546	     18.68682096	    -10.34305380	     -0.53077999	     -9.46344672	      6.19602070	     -0.54015777	      2.21480899	    -14.98756907	     -7.43294797	     57.55432811	     45.57177738	      0.00000000	      0.00000000	     13.76339064	    -13.29234708	     -9.25145336	     46.47469459	     47.09063210	      0.00000000	      0.00000000
     15.81107143	     -2.23857669	     -5.57632624	     -5.83078032	      1.08700305	      0.93037560	      0.45111831	     15.77650999	      2.51979789	     -7.82831664	     18.50353424	     18.50353424	      6.66978434	     -1.47189663	     -2.30491032	      1.11412767	    -10.26781824	    -14.74303393	     25.34589931	     25.34589931	     18.16549832	    -11.03058704	     -1.03679720	     -9.43444184	      6.24620329	     -0.83803139	      3.07373706	    -15.18015521	     -7.66323274	     58.85184245	     45.53896845	      0.00000000	      0.00000000	     12.65930845	    -13.27370895	     -9.38499553	     44.99813457	     47.07525988	      0.00000000	      0.00000000
